<svg xmlns="http://www.w3.org/2000/svg" version="1.1" xmlns:xlink="http://www.w3.org/1999/xlink" xmlns:svgjs="http://svgjs.dev/svgjs" width="2000" height="1500" viewBox="0 0 2000 1500"><rect width="2000" height="1500" fill="#efefef"></rect><g transform="matrix(0.4444444444444444,0,0,0.4444444444444444,555.5556208333335,250)"><svg viewBox="0 0 320 360" data-background-color="#efefef" preserveAspectRatio="xMidYMid meet" height="2250" width="2000" xmlns="http://www.w3.org/2000/svg" xmlns:xlink="http://www.w3.org/1999/xlink"><g id="tight-bounds" transform="matrix(1,0,0,1,0.000023499999997511622,0)"><svg viewBox="0 0 320 360" height="360" width="320"><g><svg></svg></g><g><svg viewBox="0 0 320 360" height="360" width="320"><g><path transform="translate(-74.99272,-51.79039) scale(4.65793,4.65793)" d="M20.6 59.9l0.8 1-0.4-1.3c-0.1-0.6-0.8 0.1-0.4 0.3M21.5 59.3c0.3 0.5 0.6 1 0.6 1.5 0 0.7 0.6 1 1.1 1.2-0.7-0.8-1.1-3-1.7-2.7M59.9 16.9c1.7 0 3.3-0.2 5.1 0.2 4.4 1.1 8.1 3.3 10.6 6.4l7 11.2c0.3 2.8 0.9 5.9 0.8 9.3 0.7 0 0.6-1 1.4-1.2-0.8 2-1.2 4.5-1.4 7.4-0.5-1.6 0-4 0.1-5.3-0.7 1.1-1.1 0.3-1.1-0.2 0.1-0.8-0.3-0.7-0.6-1-1.1-1-1.8-2.1-2.6-3.8 0.5-1.3 0.6-3.2-1-4.2-0.5-0.3-1.1-0.8-1.4-1.6-0.4-1.1-1.1-2.4-0.9-4.1 0.1-0.5-1.5 1.1-2.4 0.4-3.9-2.7-7.8-5.8-12.5-8.4-2.5 0-4.3-0.9-5.2-2-0.8-1-0.2-2.3 1-2.4 0.7 0 1.5-0.2 2.1 0.2 0.1-0.4 0.5-0.9 1-0.9M50 14.6l0.2 0.1c1 0.2 1.5 1.6 2.6 1.1 0 0.7 0.1 1.4-0.1 1.9-0.3 0.8-1.2 0.8-1.9 0.8-6.7-0.4-10.6 2.4-14.7 4.8-1.1 0.7-2.3 1.2-3.2 2.1-4.3 4-9 7.7-10.1 15.1l-0.9 8.2c-0.1 0.9-1.1 1.8-0.9 2.9l0.7 4.9c-0.7-0.7-1.1 0.2-0.9 0.6 0.1 0.3 0.5 1.3 1.1 0.4 0.8 1.5 1.6 4.4 2.7 5.7 3.4 4 7.8 7.6 11.4 11.2 0.9-0.2 1.6-0.2 1.8-0.8 0.3 0.6-0.3 1.2-0.8 1.3 1.6 1 3.4 1.9 5.8 2.1 3.1 0.2 6 0.7 8.7 1.4 1.4-0.4 2.8-0.6 4.3-0.7 0.5 0 0.8-0.8 1.4-1l0.1-1c0.6 0.9 0.5-0.3 0.1-0.9 0.7 0.6 0.9 1.1 1.2 1.5 0-0.3 0.8-1.4 0.8-0.1l0.2-1.3c0.3-0.2 0.4 1.1 0.7 0.2 0.3-0.9 0.9-0.2 1.5-0.5-0.2 0.4-0.1 1.2 0.6 0.7l0.8-0.7c0.5 1.2 1.3 0.7 1.7 0.5 4.4-2.8 8.8-6.1 13-9.4l-0.1 1.3 0.5-1.6c0.5 0.5 0.9 0.1 1.1-0.2 0.6-1 1.4-2 2.7-2.9-1.6 4.3-3.5 7.7-5.9 10.5l-1 1.2c0 0.7-0.2 1.6-1 1.7-0.4 0.1-1.2-0.2-1.8 0.4-0.3 0.4 0.7 1.2-0.1 0.6-0.7-0.5-1.4 0-2.2 0.2-0.6 0.2 0.4 0.8 0.6 1.2 0.2 0.4 0.4 0.8 0.3 1.3l-1.1-1.2c-1.3 0.7-2.1 2-3.2 3-0.5 0.4-0.3 1.1-0.3 1.7-0.7 0-1.5-0.2-1.9 0.2-0.3 0.4-0.2 1-0.2 1.6-1-0.1-1.1-1.6-2-1.3-0.9 0.2-1.9 0.3-2.7 0.8 0.6 1.2-1 0.5-0.8 0.7-1.5-0.9-2.8-1.6-4.4-1-3.4-1.1-7.6-0.6-10.7-0.2 0-0.5 0.1-1-0.1-1.1-0.2 0.5-0.8 0.3-0.7 0.3-1.9-1.3-3.8-2.1-5.8-3.2-1.8 0.2-3.5-0.7-4-1.2-1.4-1.3-3-0.6-4.3-0.9-2.8-0.7-3.8-3.6-4.1-5.6-0.2-1-1-1.4-1.3-1.3-1.3-4.2-3.3-8-4.9-11.9-0.4-1-0.3-2-0.3-3.1 0.5 0.2 1 0.1 0.9-0.6-0.5-3.3-1.7-5.8-3-8.2 0.7-3.4 0.8-7.4 2.4-10.4 1.4-2.7 4-4.1 5.8-6.4 0.6-0.8 0.6-1.9 1.2-2.6 2-2 4-4.1 6.2-5.9 1-0.8 2.2 0 3.7-0.3 0.5-1.8 2.5-3.4 4.4-2.9 0.8 0.2 2.4-1.9 2.9-2.1 0.8-0.3 0.4 0.8 0.4 1.5 1.9-1.5 4.5-2.3 6.9-3.2" fill="#d94e28" fill-rule="nonzero" stroke="none" stroke-width="1" stroke-linecap="butt" stroke-linejoin="miter" stroke-miterlimit="10" stroke-dasharray="" stroke-dashoffset="0" font-family="none" font-weight="none" font-size="none" text-anchor="none" style="mix-blend-mode: normal" data-fill-palette-color="tertiary"></path></g><g transform="matrix(1,0,0,1,117.5404432332912,90)"><svg viewBox="0 0 84.91911353341759 180" height="180" width="84.91911353341759"><g><svg viewBox="0 0 84.91911353341759 180" height="180" width="84.91911353341759"><g><svg viewBox="0 0 137.35849056603772 291.1538671698113" height="180" width="84.91911353341759"><g transform="matrix(1,0,0,1,0,111.15386716981132)"><svg viewBox="0 0 137.35849056603772 180" height="180" width="137.35849056603772"><g id="textblocktransform"><svg viewBox="0 0 137.35849056603772 180" height="180" width="137.35849056603772" id="textblock"><g><svg viewBox="0 0 137.35849056603772 180" height="180" width="137.35849056603772"><g transform="matrix(1,0,0,1,0,0)"><svg width="137.35849056603772" viewBox="1.9 -23.25 18.200000000000003 23.85" height="180" data-palette-color="#d94e28"><path d="M10.9 0.6L10.9 0.6Q7.05 0.6 4.48-0.78 1.9-2.15 1.9-4.75L1.9-4.75Q1.9-6.2 2.78-7.1 3.65-8 5.05-8L5.05-8Q5.95-8 6.53-7.53 7.1-7.05 7.1-6.85L7.1-6.85Q7.1-6.7 6.53-6.18 5.95-5.65 5.95-4.5L5.95-4.5Q5.95-3.1 7.28-2.18 8.6-1.25 11.3-1.25L11.3-1.25Q13.65-1.25 14.98-2.27 16.3-3.3 16.3-5.15L16.3-5.15Q16.3-6.65 15.33-7.48 14.35-8.3 12.83-8.8 11.3-9.3 9.58-9.8 7.85-10.3 6.3-11.05 4.75-11.8 3.78-13.13 2.8-14.45 2.8-16.65L2.8-16.65Q2.8-18.9 4.15-20.35 5.5-21.8 7.6-22.53 9.7-23.25 11.85-23.25L11.85-23.25Q13.7-23.25 15.35-22.73 17-22.2 18.07-21.15 19.15-20.1 19.15-18.5L19.15-18.5Q19.15-17.25 18.35-16.25 17.55-15.25 16.15-15.25L16.15-15.25Q15.25-15.25 14.68-15.73 14.1-16.2 14.1-16.4L14.1-16.4Q14.1-16.5 14.48-16.78 14.85-17.05 15.2-17.53 15.55-18 15.55-18.75L15.55-18.75Q15.45-20.2 14.15-20.9 12.85-21.6 11.25-21.6L11.25-21.6Q9.5-21.6 8-20.75 6.5-19.9 6.5-18.3L6.5-18.3Q6.5-16.85 7.13-16.05 7.75-15.25 9.13-14.68 10.5-14.1 12.7-13.4L12.7-13.4Q14.9-12.7 16.57-11.95 18.25-11.2 19.18-9.98 20.1-8.75 20.1-6.65L20.1-6.65Q20.1-4.55 18.9-2.9 17.7-1.25 15.63-0.33 13.55 0.6 10.9 0.6Z" opacity="1" transform="matrix(1,0,0,1,0,0)" fill="#d94e28" class="wordmark-text-0" data-fill-palette-color="primary" id="text-0"></path></svg></g></svg></g></svg></g></svg></g><g transform="matrix(1,0,0,1,26.2354716981132,0)"><svg viewBox="0 0 84.88754716981131 84.88754716981131" height="84.88754716981131" width="84.88754716981131"><g><svg xmlns="http://www.w3.org/2000/svg" xmlns:xlink="http://www.w3.org/1999/xlink" version="1.1" x="0" y="0" viewBox="7 7 50 50" style="enable-background:new 0 0 64 64;" xml:space="preserve" height="84.88754716981131" width="84.88754716981131" class="icon-icon-0" data-fill-palette-color="accent" id="icon-0"><path d="M48 32c0 8.8-7.2 16-16 16s-16-7.2-16-16 7.2-16 16-16S48 23.2 48 32z" fill="#f9744c" data-fill-palette-color="accent"></path><path d="M32 14c0.6 0 1-0.4 1-1V8c0-0.6-0.4-1-1-1s-1 0.4-1 1v5C31 13.6 31.4 14 32 14z" fill="#f9744c" data-fill-palette-color="accent"></path><path d="M13 33H8c-0.6 0-1-0.4-1-1s0.4-1 1-1h5c0.6 0 1 0.4 1 1S13.6 33 13 33z" fill="#f9744c" data-fill-palette-color="accent"></path><path d="M32 57c-0.6 0-1-0.4-1-1v-5c0-0.6 0.4-1 1-1s1 0.4 1 1v5C33 56.5 32.6 57 32 57z" fill="#f9744c" data-fill-palette-color="accent"></path><path d="M56 33h-5c-0.6 0-1-0.4-1-1s0.4-1 1-1h5c0.6 0 1 0.4 1 1S56.6 33 56 33z" fill="#f9744c" data-fill-palette-color="accent"></path><path d="M45.9 20c-0.3 0-0.5-0.1-0.7-0.3-0.4-0.4-0.4-1 0-1.4l3.6-3.4c0.4-0.4 1-0.4 1.4 0s0.4 1 0 1.4l-3.6 3.4C46.3 19.9 46.1 20 45.9 20z" fill="#f9744c" data-fill-palette-color="accent"></path><path d="M18.6 19.5c-0.3 0-0.5-0.1-0.7-0.3l-3.5-3.5c-0.4-0.4-0.4-1 0-1.4 0.4-0.4 1-0.4 1.4 0l3.5 3.5c0.4 0.4 0.4 1 0 1.4C19.1 19.4 18.8 19.5 18.6 19.5z" fill="#f9744c" data-fill-palette-color="accent"></path><path d="M15.1 50c-0.3 0-0.5-0.1-0.7-0.3-0.4-0.4-0.4-1 0-1.4l3.5-3.5c0.4-0.4 1-0.4 1.4 0 0.4 0.4 0.4 1 0 1.4l-3.5 3.5C15.6 49.9 15.3 50 15.1 50z" fill="#f9744c" data-fill-palette-color="accent"></path><path d="M48.9 50c-0.3 0-0.5-0.1-0.7-0.3l-3.5-3.5c-0.4-0.4-0.4-1 0-1.4 0.4-0.4 1-0.4 1.4 0l3.5 3.5c0.4 0.4 0.4 1 0 1.4C49.5 49.9 49.2 50 48.9 50z" fill="#f9744c" data-fill-palette-color="accent"></path></svg></g></svg></g><g></g></svg></g></svg></g></svg></g></svg></g><defs></defs></svg><rect width="320" height="360" fill="none" stroke="none" visibility="hidden"></rect></g></svg></g></svg>